<svg xmlns:dc="http://purl.org/dc/elements/1.1/" xmlns:cc="http://creativecommons.org/ns#" xmlns:rdf="http://www.w3.org/1999/02/22-rdf-syntax-ns#" xmlns:svg="http://www.w3.org/2000/svg" xmlns="http://www.w3.org/2000/svg" xmlns:xlink="http://www.w3.org/1999/xlink" id="svg39960" viewBox="0 0 1024 768" height="768px" width="1024px" version="1.1">
  <metadata id="metadata39966">
    <rdf:rdf>
      <cc:work rdf:about="">
        <dc:format>image/svg+xml</dc:format>
        <dc:type rdf:resource="http://purl.org/dc/dcmitype/StillImage"></dc:type>
      </cc:work>
    </rdf:rdf>
  </metadata>
  <defs id="defs39964"></defs>
  <linearGradient spreadMethod="pad" y2="30%" x2="-10%" y1="120%" x1="30%" id="3d_gradient2-logo-c03525fd-8591-4d0f-9649-305d0cc193bf">
    <stop id="stop39941" stop-opacity="1" stop-color="#ffffff" offset="0%"></stop>
    <stop id="stop39943" stop-opacity="1" stop-color="#000000" offset="100%"></stop>
  </linearGradient>
  <linearGradient gradientTransform="rotate(-30)" spreadMethod="pad" y2="30%" x2="-10%" y1="120%" x1="30%" id="3d_gradient3-logo-c03525fd-8591-4d0f-9649-305d0cc193bf">
    <stop id="stop39946" stop-opacity="1" stop-color="#ffffff" offset="0%"></stop>
    <stop id="stop39948" stop-opacity="1" stop-color="#cccccc" offset="50%"></stop>
    <stop id="stop39950" stop-opacity="1" stop-color="#000000" offset="100%"></stop>
  </linearGradient>
  <g id="logo-group">
    <image xlink:href="" id="container" x="272" y="144" width="480" height="480" style="display: none;" transform="translate(0 0)"></image>
    <g id="logo-center" transform="translate(0 0)">
      <image xlink:href="" id="icon_container" style="display: none;" x="0" y="0"></image>
      <g id="slogan" style="font-style:oblique;font-weight:normal;font-size:32px;line-height:1;font-family:'Fira Sans Condensed';font-variant-ligatures:none;text-align:center;text-anchor:middle" transform="translate(0 0)"></g>
      <g id="title" style="font-style:normal;font-weight:800;font-size:72px;line-height:1;font-family:'Montserrat ExtraBold Alt1';font-variant-ligatures:none;text-align:center;text-anchor:middle" transform="translate(0 0)">
        <path id="path39969" style="font-style:normal;font-weight:800;font-size:72px;line-height:1;font-family:'Montserrat ExtraBold Alt1';font-variant-ligatures:none;text-align:center;text-anchor:middle" d="m 286.52919,-2.304 c 4.176,2.232 8.928,3.312 14.256,3.312 4.608,0 8.712,-0.792 12.456,-2.448 3.672,-1.584 6.768,-3.96 9.216,-7.056 l -9.072,-8.208 c -3.312,3.96 -7.272,5.904 -11.88,5.904 -2.736,0 -5.184,-0.576 -7.344,-1.8 -2.16,-1.152 -3.816,-2.88 -4.968,-5.04 -1.152,-2.16 -1.728,-4.68 -1.728,-7.56 0,-2.808 0.576,-5.328 1.728,-7.488 1.152,-2.16 2.808,-3.888 4.968,-5.112 2.16,-1.152 4.608,-1.8 7.344,-1.8 4.608,0 8.568,2.016 11.88,5.904 l 9.072,-8.208 c -2.448,-3.024 -5.544,-5.4 -9.216,-7.056 -3.744,-1.584 -7.848,-2.448 -12.456,-2.448 -5.328,0 -10.08,1.152 -14.256,3.384 -4.176,2.232 -7.488,5.328 -9.864,9.288 -2.448,4.032 -3.6,8.496 -3.6,13.536 0,5.04 1.152,9.576 3.6,13.536 2.376,4.032 5.688,7.128 9.864,9.36 z" stroke-width="0" stroke-linejoin="miter" stroke-miterlimit="2" fill="#509df5" stroke="#509df5" transform="translate(0 310.56399999999996) translate(216.27227375000007 44.345119999999994) scale(1.11) translate(-273.06519 51.408)"></path>
        <path id="path39971" style="font-style:normal;font-weight:800;font-size:72px;line-height:1;font-family:'Montserrat ExtraBold Alt1';font-variant-ligatures:none;text-align:center;text-anchor:middle" d="m 338.70444,-2.376 c 4.248,2.304 9.072,3.384 14.4,3.384 5.328,0 10.08,-1.08 14.328,-3.384 4.248,-2.232 7.56,-5.328 10.008,-9.36 2.448,-3.96 3.672,-8.424 3.672,-13.464 0,-4.968 -1.224,-9.432 -3.672,-13.464 -2.448,-3.96 -5.76,-7.056 -10.008,-9.36 -4.248,-2.232 -9,-3.384 -14.328,-3.384 -5.328,0 -10.152,1.152 -14.4,3.384 -4.248,2.304 -7.56,5.4 -10.008,9.36 -2.448,4.032 -3.6,8.496 -3.6,13.464 0,5.04 1.152,9.504 3.6,13.464 2.448,4.032 5.76,7.128 10.008,9.36 z m 21.312,-10.224 c -2.088,1.224 -4.392,1.8 -6.912,1.8 -2.592,0 -4.896,-0.576 -6.912,-1.8 -2.088,-1.152 -3.744,-2.88 -4.896,-5.04 -1.224,-2.16 -1.8,-4.68 -1.8,-7.56 0,-2.808 0.576,-5.328 1.8,-7.488 1.152,-2.16 2.808,-3.888 4.896,-5.112 2.016,-1.152 4.32,-1.8 6.912,-1.8 2.52,0 4.824,0.648 6.912,1.8 2.016,1.224 3.672,2.952 4.896,5.112 1.152,2.16 1.8,4.68 1.8,7.488 0,2.88 -0.648,5.4 -1.8,7.56 -1.224,2.16 -2.88,3.888 -4.896,5.04 z" stroke-width="0" stroke-linejoin="miter" stroke-miterlimit="2" fill="#5fa4e1" stroke="#5fa4e1" transform="translate(0 310.56399999999996) translate(280.6869612500001 44.345119999999994) scale(1.11) translate(-325.09644 51.408)"></path>
        <path id="path39973" style="font-style:normal;font-weight:800;font-size:72px;line-height:1;font-family:'Montserrat ExtraBold Alt1';font-variant-ligatures:none;text-align:center;text-anchor:middle" d="m 437.03506,-38.52 c -2.376,-3.744 -5.688,-6.696 -9.936,-8.784 -4.32,-2.016 -9.216,-3.096 -14.688,-3.096 h -23.832 v 11.376 h 23.256 c 4.32,0 7.776,1.224 10.368,3.672 2.592,2.52 3.96,5.904 3.96,10.152 0,4.32 -1.368,7.704 -3.96,10.152 -2.592,2.448 -6.048,3.672 -10.368,3.672 h -9 v -13.392 h -14.256 V 0 h 23.832 c 5.472,0 10.368,-1.008 14.688,-3.096 4.248,-2.016 7.56,-4.968 9.936,-8.784 2.304,-3.744 3.528,-8.208 3.528,-13.32 0,-5.04 -1.224,-9.504 -3.528,-13.32 z" stroke-width="0" stroke-linejoin="miter" stroke-miterlimit="2" fill="#6facce" stroke="#6facce" transform="translate(0 310.56399999999996) translate(357.81266945000016 45.464) scale(1.11) translate(-388.57906 50.4)"></path>
        <path id="path39975" style="font-style:normal;font-weight:800;font-size:72px;line-height:1;font-family:'Montserrat ExtraBold Alt1';font-variant-ligatures:none;text-align:center;text-anchor:middle" d="m 472.95406,-18.072 19.296,-32.328 h -13.824 l -11.952,20.016 -11.952,-20.016 h -15.048 l 19.224,32.112 V 0 h 14.256 z" stroke-width="0" stroke-linejoin="miter" stroke-miterlimit="2" fill="#7eb3ba" stroke="#7eb3ba" transform="translate(0 310.56399999999996) translate(420.9661194500002 45.464) scale(1.11) translate(-439.47406 50.4)"></path>
        <path id="path39977" style="font-style:normal;font-weight:800;font-size:72px;line-height:1;font-family:'Montserrat ExtraBold Alt1';font-variant-ligatures:none;text-align:center;text-anchor:middle" d="m 495.59469,0 h 14.256 v -17.28 h 23.832 v -11.016 h -38.088 z m 0,-50.4 v 11.016 h 38.088 V -50.4 Z" stroke-width="0" stroke-linejoin="miter" stroke-miterlimit="2" fill="#8ebba6" stroke="#8ebba6" transform="translate(0 310.56399999999996) translate(489.92001875000017 45.464) scale(1.11) translate(-495.59469 50.4)"></path>
        <path id="path39979" style="font-style:normal;font-weight:800;font-size:72px;line-height:1;font-family:'Montserrat ExtraBold Alt1';font-variant-ligatures:none;text-align:center;text-anchor:middle" d="m 566.98831,-10.08 h 10.368 l -13.176,-30.24 h -10.8 l -13.176,30.24 h 10.368 l 8.208,-19.728 z" stroke-width="0" stroke-linejoin="miter" stroke-miterlimit="2" fill="#9dc293" stroke="#9dc293" transform="translate(0 310.56399999999996) translate(546.0966969500001 56.6528) scale(1.11) translate(-540.20431 40.32)"></path>
        <path id="path39981" style="font-style:normal;font-weight:800;font-size:72px;line-height:1;font-family:'Montserrat ExtraBold Alt1';font-variant-ligatures:none;text-align:center;text-anchor:middle" d="M 585.73531,-50.4 V 0 h 14.256 v -50.4 z" stroke-width="0" stroke-linejoin="miter" stroke-miterlimit="2" fill="#adca7f" stroke="#adca7f" transform="translate(0 310.56399999999996) translate(603.2961069500002 45.464) scale(1.11) translate(-585.73531 50.4)"></path>
        <path id="path39983" style="font-style:normal;font-weight:800;font-size:72px;line-height:1;font-family:'Montserrat ExtraBold Alt1';font-variant-ligatures:none;text-align:center;text-anchor:middle" d="m 650.16406,-50.4 h -39.96 v 11.016 h 39.96 z m 0,19.512 h -39.96 v 10.656 h 39.96 z m -39.96,19.872 V 0 h 39.96 v -11.016 z" stroke-width="0" stroke-linejoin="miter" stroke-miterlimit="2" fill="#bcd16b" stroke="#bcd16b" transform="translate(0 310.56399999999996) translate(637.1164194500002 45.464) scale(1.11) translate(-610.20406 50.4)"></path>
        <path id="path39985" style="font-style:normal;font-weight:800;font-size:72px;line-height:1;font-family:'Montserrat ExtraBold Alt1';font-variant-ligatures:none;text-align:center;text-anchor:middle" d="m 694.14706,-15.84 c 3.096,-1.512 5.544,-3.6 7.272,-6.336 1.728,-2.736 2.592,-5.904 2.592,-9.576 0,-3.744 -0.936,-7.056 -2.736,-9.864 -1.872,-2.808 -4.464,-4.968 -7.776,-6.48 -3.384,-1.512 -7.344,-2.304 -11.88,-2.304 h -23.04 v 11.232 h 22.176 c 2.88,0 5.112,0.648 6.624,1.944 1.44,1.296 2.232,3.168 2.232,5.472 0,2.376 -0.792,4.176 -2.232,5.472 -1.512,1.296 -3.744,1.872 -6.624,1.872 h -22.176 V 0 h 14.256 v -13.392 h 7.776 L 689.75506,0 h 15.264 z" stroke-width="0" stroke-linejoin="miter" stroke-miterlimit="2" fill="#ccd958" stroke="#ccd958" transform="translate(0 310.56399999999996) translate(697.4726694500001 45.464) scale(1.11) translate(-658.57906 50.4)"></path>
        <path id="path39987" style="font-style:normal;font-weight:800;font-size:72px;line-height:1;font-family:'Montserrat ExtraBold Alt1';font-variant-ligatures:none;text-align:center;text-anchor:middle" d="m 717.70794,-0.504 c 3.816,1.008 7.776,1.512 11.88,1.512 4.752,0 8.856,-0.72 12.24,-2.16 3.312,-1.44 5.832,-3.456 7.56,-5.904 1.656,-2.448 2.52,-5.184 2.52,-8.208 0,-3.456 -0.936,-6.264 -2.808,-8.28 -1.872,-2.016 -4.032,-3.528 -6.552,-4.464 -2.52,-0.936 -5.688,-1.8 -9.504,-2.664 -3.456,-0.72 -5.904,-1.368 -7.416,-2.088 -1.584,-0.648 -2.304,-1.656 -2.304,-3.024 0,-1.296 0.648,-2.376 1.944,-3.24 1.296,-0.864 3.312,-1.296 6.192,-1.296 4.464,0 9.144,1.296 13.968,3.888 l 4.392,-10.584 c -2.448,-1.44 -5.328,-2.52 -8.496,-3.24 -3.24,-0.72 -6.48,-1.152 -9.792,-1.152 -4.896,0 -9,0.72 -12.312,2.16 -3.312,1.44 -5.832,3.456 -7.488,5.904 -1.728,2.448 -2.52,5.256 -2.52,8.28 0,3.528 0.864,6.336 2.736,8.352 1.8,2.088 3.96,3.6 6.552,4.536 2.52,0.936 5.688,1.8 9.504,2.592 3.456,0.792 5.904,1.512 7.488,2.232 1.584,0.72 2.376,1.728 2.376,3.168 0,2.736 -2.736,4.104 -8.208,4.104 -2.88,0 -5.832,-0.432 -8.784,-1.368 -3.024,-0.864 -5.616,-2.088 -7.848,-3.6 l -4.68,10.512 c 2.376,1.728 5.472,3.024 9.36,4.032 z" stroke-width="0" stroke-linejoin="miter" stroke-miterlimit="2" fill="#dbe044" stroke="#dbe044" transform="translate(0 310.56399999999996) translate(759.3761262500001 44.345119999999994) scale(1.11) translate(-708.34794 51.408)"></path>
      </g>
      <image xlink:href="" id="icon" style="display: none;" x="0" y="0"></image>
    </g>
  </g>
</svg>